<svg width="256" height="175" viewBox="0 0 256 175" fill="none" xmlns="http://www.w3.org/2000/svg">
<path d="M38.85 101.682C34.9418 91.5272 23.0872 60.7321 36.0384 36.8518C61.422 -9.97392 169.554 -7.0095 226.306 45.3216C237.035 55.2161 253.32 70.2318 253.175 90.278C252.863 133.291 177.033 182.298 113.206 166.185C107.587 164.767 57.9539 151.328 38.85 101.682Z" fill="#ECF3FE"/>
<g style="mix-blend-mode:multiply" opacity="0.2">
<path d="M229.145 79.9355H107.185C104.555 79.9355 102.424 82.0672 102.424 84.6968V151.9C102.424 154.529 104.555 156.661 107.185 156.661H229.145C231.775 156.661 233.906 154.529 233.906 151.9V84.6968C233.906 82.0672 231.775 79.9355 229.145 79.9355Z" fill="#3A7EC1"/>
</g>
<path d="M230.528 81.314V148.519C230.528 149.781 230.027 150.992 229.134 151.885C228.242 152.778 227.031 153.279 225.769 153.28H103.809C102.546 153.279 101.335 152.778 100.443 151.885C99.5502 150.992 99.0488 149.781 99.0488 148.519V81.314C99.0486 80.6888 99.1716 80.0697 99.4107 79.492C99.6498 78.9144 100 78.3895 100.442 77.9473C100.884 77.5052 101.409 77.1545 101.987 76.9152C102.564 76.6759 103.183 76.5527 103.809 76.5527H225.769C226.394 76.5527 227.013 76.6759 227.591 76.9152C228.168 77.1545 228.693 77.5052 229.135 77.9473C229.577 78.3895 229.927 78.9144 230.167 79.492C230.406 80.0697 230.529 80.6888 230.528 81.314Z" fill="#3B82F4"/>
<path d="M216.72 165.414C214.41 169.414 208.637 169.414 206.327 165.414L200.265 154.914C197.956 150.914 200.842 145.914 205.461 145.914L217.586 145.914C222.204 145.914 225.091 150.914 222.782 154.914L216.72 165.414Z" fill="#3B82F4"/>
<path d="M150.412 96.3993H118.996C117.974 96.3993 116.994 95.9933 116.271 95.2706C115.549 94.5479 115.143 93.5677 115.143 92.5456C115.143 91.5238 115.549 90.5439 116.272 89.8215C116.995 89.0991 117.975 88.6934 118.996 88.6934H150.412C151.433 88.6934 152.413 89.0991 153.136 89.8215C153.859 90.5439 154.265 91.5238 154.265 92.5456C154.265 93.5677 153.859 94.5479 153.137 95.2706C152.414 95.9933 151.434 96.3993 150.412 96.3993Z" fill="#B3CEF6"/>
<path d="M211.17 109.737H132.333C131.905 109.737 131.481 109.653 131.085 109.489C130.69 109.326 130.33 109.086 130.027 108.783C129.725 108.48 129.484 108.121 129.321 107.725C129.157 107.33 129.072 106.906 129.072 106.478C129.072 105.613 129.416 104.783 130.027 104.172C130.639 103.56 131.468 103.217 132.333 103.217H211.17C212.035 103.217 212.864 103.56 213.476 104.172C214.087 104.783 214.431 105.613 214.431 106.478C214.431 107.342 214.087 108.171 213.475 108.782C212.864 109.394 212.035 109.737 211.17 109.737Z" fill="#B3CEF6"/>
<path d="M211.167 116.555H118.401C116.601 116.555 115.141 118.014 115.141 119.815C115.141 121.615 116.601 123.075 118.401 123.075H211.167C212.968 123.075 214.428 121.615 214.428 119.815C214.428 118.014 212.968 116.555 211.167 116.555Z" fill="#B3CEF6"/>
<path d="M211.169 129.89H118.403C116.603 129.89 115.143 131.349 115.143 133.15C115.143 134.95 116.603 136.41 118.403 136.41H211.169C212.97 136.41 214.43 134.95 214.43 133.15C214.43 131.349 212.97 129.89 211.169 129.89Z" fill="#B3CEF6"/>
<path fill-rule="evenodd" clip-rule="evenodd" d="M81.6633 103.05L171.311 103.146C171.933 103.147 172.549 103.025 173.123 102.788C173.698 102.551 174.22 102.204 174.66 101.765C175.099 101.327 175.448 100.806 175.687 100.232C175.925 99.6589 176.048 99.0442 176.048 98.4233L176.095 31.6765C176.096 31.0551 175.975 30.4394 175.738 29.8647C175.501 29.29 175.153 28.7675 174.714 28.3271C174.274 27.8868 173.753 27.5372 173.178 27.2983C172.603 27.0594 171.987 26.936 171.365 26.935L50.0803 26.8047C49.4586 26.8038 48.8429 26.9253 48.2683 27.1622C47.6937 27.3992 47.1715 27.7468 46.7316 28.1855C46.2918 28.6241 45.9428 29.145 45.7046 29.7185C45.4665 30.292 45.3439 30.9068 45.3438 31.5277L45.2969 98.2745C45.2951 98.896 45.4161 99.5119 45.6529 100.087C45.8898 100.662 46.2378 101.184 46.6772 101.625C47.1165 102.065 47.6385 102.415 48.2132 102.654C48.7879 102.892 49.4041 103.015 50.0265 103.016L57.7103 103.024C57.829 103.685 58.0645 104.345 58.4308 104.979L64.493 115.479C66.8024 119.479 72.5759 119.479 74.8853 115.479L80.9475 104.979C81.309 104.353 81.5432 103.702 81.6633 103.05Z" fill="white"/>
<path d="M97.372 47.5882L65.9941 47.6826C65.4884 47.6841 64.9874 47.586 64.5197 47.3937C64.052 47.2015 63.6267 46.919 63.2683 46.5623C62.9098 46.2056 62.6252 45.7817 62.4307 45.3149C62.2362 44.8482 62.1355 44.3477 62.1346 43.842C62.1333 43.3364 62.2315 42.8356 62.4238 42.368C62.6161 41.9005 62.8987 41.4754 63.2553 41.1171C63.612 40.7589 64.0357 40.4744 64.5024 40.2799C64.969 40.0855 65.4694 39.9849 65.975 39.9839L97.3467 39.8902C98.3677 39.8878 99.3479 40.2911 100.072 41.0113C100.795 41.7316 101.203 42.7097 101.206 43.7307C101.208 44.7503 100.805 45.729 100.087 46.4521C99.3678 47.1753 98.3916 47.5838 97.372 47.5882Z" fill="#52D1BD"/>
<path d="M158.109 60.7295L79.3678 60.9671C78.9396 60.9692 78.5152 60.8868 78.1188 60.7246C77.7225 60.5624 77.3621 60.3236 77.0581 60.022C76.7542 59.7203 76.5128 59.3616 76.3477 58.9665C76.1825 58.5714 76.097 58.1476 76.0959 57.7194C76.0946 57.2917 76.1776 56.868 76.34 56.4725C76.5025 56.0769 76.7413 55.7172 77.0428 55.4139C77.3443 55.1107 77.7026 54.8697 78.0972 54.7049C78.4918 54.5401 78.915 54.4546 79.3427 54.4534L158.084 54.2158C158.512 54.2145 158.936 54.2975 159.331 54.46C159.727 54.6224 160.086 54.8612 160.39 55.1627C160.693 55.4642 160.934 55.8226 161.099 56.2172C161.263 56.6118 161.349 57.0349 161.35 57.4626C161.353 58.3254 161.013 59.154 160.406 59.7666C159.798 60.3791 158.972 60.7254 158.109 60.7295Z" fill="#E4ECF9"/>
<path d="M158.156 74.0579L65.5016 74.3375C65.074 74.3388 64.6502 74.2558 64.2547 74.0933C63.8591 73.9308 63.4994 73.692 63.1961 73.3905C62.8929 73.089 62.652 72.7307 62.4871 72.3361C62.3223 71.9415 62.2369 71.5183 62.2356 71.0907C62.2343 70.6631 62.3173 70.2394 62.4798 69.8438C62.6423 69.4482 62.8811 69.0885 63.1826 68.7852C63.4841 68.482 63.8424 68.241 64.237 68.0762C64.6316 67.9114 65.0548 67.826 65.4824 67.8247L158.137 67.5451C158.565 67.5438 158.989 67.6268 159.384 67.7892C159.78 67.9517 160.139 68.1905 160.443 68.492C160.746 68.7935 160.987 69.1518 161.152 69.5464C161.316 69.941 161.402 70.3642 161.403 70.7919C161.404 71.2195 161.321 71.6432 161.159 72.0388C160.997 72.4344 160.758 72.794 160.456 73.0973C160.155 73.4006 159.796 73.6415 159.402 73.8063C159.007 73.9711 158.584 74.0566 158.156 74.0579Z" fill="#E4ECF9"/>
<path d="M158.196 87.3676L65.5402 87.6533C65.1125 87.6547 64.6887 87.5719 64.293 87.4095C63.8974 87.2471 63.5376 87.0083 63.2343 86.7067C62.931 86.4052 62.6901 86.0468 62.5253 85.6522C62.3606 85.2575 62.2753 84.8341 62.2742 84.4065C62.2716 83.543 62.612 82.7139 63.2206 82.1014C63.8292 81.4889 64.6561 81.1431 65.5195 81.1402L158.175 80.8576C158.602 80.8561 159.026 80.9389 159.422 81.1012C159.817 81.2635 160.177 81.5021 160.48 81.8035C160.784 82.1049 161.025 82.4631 161.189 82.8576C161.354 83.2522 161.44 83.6753 161.441 84.1029C161.442 84.5303 161.359 84.9539 161.197 85.3493C161.035 85.7447 160.796 86.1042 160.495 86.4074C160.193 86.7105 159.835 86.9514 159.441 87.1161C159.046 87.2809 158.623 87.3664 158.196 87.3676Z" fill="#E4ECF9"/>
<g style="mix-blend-mode:multiply" opacity="0.2">
<path d="M239.021 102.181C247.978 93.2247 247.978 78.7031 239.021 69.7464C230.065 60.7898 215.543 60.7898 206.587 69.7464C197.63 78.7031 197.63 93.2247 206.587 102.181C215.543 111.138 230.065 111.138 239.021 102.181Z" fill="#3A7EC1"/>
</g>
<path d="M237.662 98.8063C246.619 89.8497 246.619 75.3281 237.662 66.3714C228.705 57.4148 214.184 57.4148 205.227 66.3714C196.271 75.3281 196.271 89.8497 205.227 98.8063C214.184 107.763 228.705 107.763 237.662 98.8063Z" fill="white"/>
<path opacity="0.21" d="M232.479 94.0105C231.524 94.963 230.448 95.7853 229.277 96.4561C228.677 96.8019 228.054 97.1051 227.411 97.3636C226.72 97.6481 226.01 97.8807 225.284 98.0594C221.323 99.0493 217.131 98.4442 213.611 96.3745C214.046 95.2561 214.699 94.2358 215.533 93.3733C216.367 92.5108 217.365 91.8234 218.468 91.3516C218.857 91.1846 219.258 91.0476 219.667 90.9417C219.683 90.9363 219.699 90.9318 219.716 90.9281C220.084 90.8322 220.457 90.7604 220.835 90.7133L224.064 90.308C224.441 90.2602 224.821 90.237 225.201 90.2384C225.218 90.2369 225.236 90.2369 225.253 90.2384C225.676 90.2403 226.099 90.2737 226.517 90.3382C227.706 90.5214 228.846 90.9407 229.87 91.5714C230.894 92.2021 231.781 93.0314 232.479 94.0105Z" fill="#3B82F4"/>
<path d="M229.662 74.8114L230.969 85.2171C231.107 86.3182 230.802 87.4291 230.122 88.3055C229.441 89.1819 228.44 89.7521 227.339 89.8906L217.558 91.1187C216.457 91.2565 215.347 90.9515 214.471 90.2708C213.595 89.5901 213.026 88.5894 212.888 87.4888L211.581 77.0831C210.421 67.842 219.512 67.1236 219.512 67.1236C221.119 66.9068 222.755 67.0536 224.298 67.5531C226.488 68.2957 228.762 70.032 229.52 73.9357C229.576 74.214 229.623 74.5074 229.662 74.8114Z" fill="#3B82F4"/>
<path d="M225.055 88.6229L225.439 91.6826C225.602 92.9803 224.478 94.1993 222.942 94.3929C221.405 94.5865 220.015 93.6805 219.853 92.3844L219.469 89.3247C219.408 88.7927 219.549 88.2572 219.864 87.8243C219.936 87.7196 220.017 87.621 220.106 87.5294C220.279 87.3451 220.476 87.1854 220.693 87.0545C221.082 86.8207 221.515 86.6707 221.966 86.6142C222.416 86.5577 222.873 86.5959 223.308 86.7263C223.549 86.7999 223.779 86.9051 223.993 87.0393L224.025 87.0605C224.122 87.1218 224.214 87.1911 224.3 87.2677C224.714 87.6077 224.984 88.0919 225.055 88.6229Z" fill="white"/>
<path opacity="0.21" d="M228.504 77.3513L229.062 81.8071C229.245 83.3006 228.966 84.8144 228.263 86.1448C227.56 87.4752 226.466 88.5583 225.129 89.2484L225.281 90.4251C224.518 90.8185 223.692 91.0745 222.841 91.1813L222.236 91.2554C221.385 91.3633 220.522 91.3192 219.686 91.1253L219.535 89.9501C218.069 89.6113 216.742 88.8319 215.732 87.7166C214.722 86.6012 214.078 85.2035 213.886 83.7112L213.326 79.2555C213.099 77.3292 213.641 75.3912 214.834 73.862C216.028 72.3329 217.776 71.3362 219.7 71.0883L220.305 71.0126C221.951 70.8067 223.618 71.1667 225.032 72.0335C225.972 72.6038 226.772 73.3776 227.372 74.298C227.973 75.2183 228.36 76.2617 228.504 77.3513Z" fill="#3B82F4"/>
<path d="M228.356 76.2085L229.058 81.8046C229.244 83.2802 228.974 84.7774 228.285 86.0954C228.13 86.3902 227.955 86.6746 227.763 86.947C227.083 87.9116 226.181 88.6986 225.133 89.2414C224.371 89.6356 223.545 89.8917 222.694 89.9976L222.098 90.0732C221.247 90.1812 220.384 90.1371 219.549 89.9431C218.083 89.6048 216.755 88.8255 215.745 87.7101C214.735 86.5948 214.091 85.1968 213.899 83.7042L213.2 78.1369C213.189 78.0582 213.183 77.9856 213.176 77.904C212.995 76.0026 213.56 74.1052 214.752 72.613C215.944 71.1208 217.67 70.1506 219.564 69.9076L220.169 69.8335C221.76 69.6332 223.371 69.9628 224.755 70.7712C225.471 71.1862 226.111 71.7184 226.65 72.3457C226.871 72.6026 227.073 72.8745 227.255 73.1594C227.848 74.0794 228.225 75.1219 228.356 76.2085Z" fill="white"/>
<path d="M231.654 78.7962C231.751 79.5699 231.536 80.3503 231.058 80.966C230.58 81.5817 229.876 81.9823 229.103 82.0798L228.369 76.2447C228.761 76.1953 229.159 76.2257 229.538 76.3339C230.094 76.4913 230.591 76.8087 230.967 77.2465C231.343 77.6844 231.582 78.2233 231.654 78.7962Z" fill="#B3CEF6"/>
<path d="M230.536 78.9329C230.567 79.1704 230.55 79.4116 230.487 79.6426C230.424 79.8736 230.316 80.09 230.169 80.279C230.023 80.4681 229.84 80.6263 229.631 80.7444C229.423 80.8625 229.193 80.9382 228.956 80.9671L228.502 77.3539C228.739 77.3232 228.98 77.3397 229.211 77.4026C229.442 77.4654 229.659 77.5734 229.848 77.7201C230.037 77.8669 230.195 78.0496 230.313 78.2577C230.431 78.4659 230.507 78.6953 230.536 78.9329Z" fill="white"/>
<path d="M226.524 90.3389L225.28 98.06C224.069 98.3624 222.826 98.5183 221.579 98.5243L218.463 91.3522L220.004 91.1586L220.066 91.2085L222.816 93.4183L224.933 90.5975L224.98 90.534L226.524 90.3389Z" fill="#3B82F4"/>
<path d="M213.204 78.1436L213.937 83.9786C213.221 84.0671 212.497 83.8893 211.904 83.479C211.31 83.0687 210.888 82.4546 210.718 81.7534C210.548 81.0522 210.641 80.3128 210.98 79.676C211.319 79.0391 211.881 78.5492 212.558 78.2993L212.691 78.2555L212.764 78.2358C212.908 78.194 213.055 78.1632 213.204 78.1436Z" fill="#B3CEF6"/>
<path d="M211.759 81.2857C211.819 81.7649 212.068 82.2006 212.449 82.4969C212.83 82.7933 213.314 82.9261 213.793 82.8662L213.339 79.2529C213.102 79.2819 212.872 79.3576 212.664 79.4756C212.456 79.5936 212.273 79.7516 212.126 79.9405C211.979 80.1294 211.871 80.3455 211.808 80.5764C211.745 80.8073 211.728 81.0483 211.759 81.2857Z" fill="white"/>
<path d="M229.272 96.4482C228.672 96.794 228.048 97.0972 227.405 97.3557L227.322 96.6872L229.272 96.4482Z" fill="#3B82F4"/>
<path d="M226.523 90.3329L225.119 94.539L222.814 93.4138L224.982 90.5265L225.265 90.1514L226.523 90.3329Z" fill="#B3CEF6"/>
<path d="M222.816 93.4091L220.863 95.0682L218.463 91.3415L219.638 90.8545L220.004 91.1479L222.816 93.4091Z" fill="#B3CEF6"/>
<path d="M229.638 74.6199C224.252 75.6952 224.152 70.7117 224.417 68.2373C226.607 68.9799 228.882 70.7177 229.638 74.6199Z" fill="#3B82F4"/>
<path d="M226.332 70.6964C226.18 71.0201 224.731 74.6288 221.359 75.0508C217.986 75.4727 212.889 78.171 213.144 81.5543C213.4 84.9377 207.635 71.8308 217.742 69.4834C227.85 67.1361 226.332 70.6964 226.332 70.6964Z" fill="#3B82F4"/>
<g style="mix-blend-mode:multiply" opacity="0.2">
<path d="M50.7695 52.027C59.7262 43.0704 59.7262 28.5488 50.7695 19.5921C41.8129 10.6355 27.2913 10.6355 18.3346 19.5921C9.37798 28.5488 9.378 43.0704 18.3347 52.027C27.2913 60.9837 41.8129 60.9837 50.7695 52.027Z" fill="#3A7EC1"/>
</g>
<path d="M49.4102 48.652C58.3668 39.6954 58.3668 25.1738 49.4102 16.2171C40.4535 7.26046 25.9319 7.26047 16.9753 16.2171C8.01861 25.1738 8.0186 39.6954 16.9753 48.652C25.9319 57.6087 40.4535 57.6087 49.4102 48.652Z" fill="white"/>
<path opacity="0.21" d="M44.2273 43.8562C43.2722 44.8087 42.1956 45.631 41.0254 46.3018C40.4253 46.6476 39.8016 46.9509 39.1591 47.2093C38.4685 47.4938 37.7577 47.7264 37.0325 47.9051C33.071 48.895 28.8792 48.2899 25.3594 46.2202C25.7938 45.1018 26.4471 44.0815 27.2811 43.219C28.115 42.3565 29.1128 41.6691 30.2159 41.1973C30.6046 41.0303 31.0056 40.8933 31.4153 40.7874C31.4311 40.782 31.4473 40.7775 31.4637 40.7738C31.8316 40.6779 32.2055 40.6061 32.5829 40.559L35.812 40.1537C36.1892 40.1059 36.5691 40.0827 36.9494 40.0841C36.9665 40.0826 36.9837 40.0826 37.0008 40.0841C37.4241 40.086 37.8468 40.1194 38.2652 40.184C39.4538 40.3671 40.5937 40.7864 41.6177 41.4171C42.6416 42.0478 43.529 42.8771 44.2273 43.8562Z" fill="#3B82F4"/>
<path d="M41.4103 24.6571L42.7171 35.0628C42.8553 36.1639 42.5505 37.2748 41.8698 38.1512C41.1891 39.0276 40.1882 39.5978 39.0871 39.7363L29.3061 40.9644C28.2054 41.1022 27.0951 40.7972 26.2193 40.1165C25.3434 39.4358 24.7738 38.4351 24.6356 37.3345L23.3288 26.9288C22.1688 17.6877 31.2602 16.9693 31.2602 16.9693C32.8674 16.7525 34.5027 16.8993 36.0456 17.3988C38.2356 18.1414 40.5104 19.8777 41.2681 23.7814C41.3241 24.0597 41.371 24.3531 41.4103 24.6571Z" fill="#52D1BD"/>
<path d="M36.8027 38.4686L37.1868 41.5283C37.3502 42.826 36.2264 44.045 34.6898 44.2386C33.1531 44.4322 31.7631 43.5262 31.6013 42.2301L31.2172 39.1704C31.1559 38.6384 31.2968 38.1029 31.6119 37.67C31.6845 37.5653 31.7654 37.4667 31.8539 37.3751C32.027 37.1908 32.2245 37.0311 32.4407 36.9002C32.8298 36.6664 33.2633 36.5165 33.7136 36.4599C34.1639 36.4034 34.6211 36.4416 35.0558 36.572C35.297 36.6456 35.5274 36.7508 35.7409 36.885L35.7727 36.9062C35.87 36.9676 35.9621 37.0368 36.0479 37.1134C36.4619 37.4534 36.7316 37.9376 36.8027 38.4686Z" fill="white"/>
<path opacity="0.21" d="M40.2516 27.197L40.8097 31.6528C40.993 33.1463 40.7144 34.6601 40.0113 35.9905C39.3083 37.3209 38.2145 38.4041 36.8773 39.0941L37.0286 40.2708C36.2661 40.6642 35.4403 40.9202 34.589 41.027L33.984 41.1011C33.133 41.209 32.2696 41.1649 31.434 40.971L31.2827 39.7958C29.8168 39.457 28.4897 38.6776 27.4799 37.5623C26.47 36.4469 25.8257 35.0492 25.6337 33.5569L25.0741 29.1012C24.8471 27.1749 25.3891 25.2369 26.5823 23.7077C27.7756 22.1786 29.5239 21.1819 31.4476 20.934L32.0526 20.8583C33.6987 20.6524 35.366 21.0124 36.7805 21.8792C37.7201 22.4495 38.5196 23.2233 39.1204 24.1437C39.7211 25.064 40.1077 26.1074 40.2516 27.197Z" fill="#3B82F4"/>
<path d="M40.1044 26.0542L40.8062 31.6503C40.9922 33.1259 40.7225 34.6232 40.0333 35.9411C39.8778 36.2359 39.7035 36.5203 39.5115 36.7927C38.8315 37.7573 37.9294 38.5443 36.8813 39.0871C36.1192 39.4813 35.2932 39.7374 34.4417 39.8433L33.8458 39.9189C32.9953 40.0269 32.1324 39.9828 31.2973 39.7888C29.831 39.4505 28.5035 38.6712 27.4933 37.5558C26.4831 36.4405 25.8387 35.0425 25.6468 33.5499L24.948 27.9826C24.9374 27.9039 24.9314 27.8313 24.9238 27.7497C24.7426 25.8483 25.3079 23.9509 26.5001 22.4587C27.6923 20.9665 29.418 19.9963 31.3125 19.7533L31.9174 19.6792C33.5076 19.479 35.1194 19.8085 36.5032 20.6169C37.2187 21.0319 37.8593 21.5641 38.3983 22.1914C38.6186 22.4483 38.8207 22.7202 39.0033 23.0051C39.5963 23.9251 39.9728 24.9676 40.1044 26.0542Z" fill="white"/>
<path d="M43.4022 28.6419C43.499 29.4156 43.2845 30.1961 42.8061 30.8118C42.3277 31.4275 41.6244 31.828 40.8507 31.9255L40.1172 26.0904C40.5089 26.041 40.9066 26.0714 41.2863 26.1796C41.8418 26.337 42.3387 26.6544 42.7149 27.0922C43.0912 27.5301 43.3303 28.069 43.4022 28.6419Z" fill="#B3CEF6"/>
<path d="M42.2843 28.7786C42.3149 29.0161 42.2983 29.2573 42.2354 29.4883C42.1725 29.7193 42.0644 29.9357 41.9175 30.1247C41.7706 30.3138 41.5877 30.472 41.3794 30.5901C41.1711 30.7082 40.9414 30.7839 40.7037 30.8129L40.25 27.1996C40.4874 27.1689 40.7285 27.1854 40.9594 27.2483C41.1904 27.3111 41.4066 27.4191 41.5957 27.5658C41.7847 27.7126 41.9429 27.8953 42.0611 28.1034C42.1793 28.3116 42.2551 28.541 42.2843 28.7786Z" fill="white"/>
<path d="M38.2723 40.1846L37.0276 47.9057C35.817 48.2081 34.5744 48.364 33.3266 48.37L30.2109 41.1979L31.7521 41.0043L31.8141 41.0542L34.5638 43.264L36.6812 40.4432L36.7281 40.3797L38.2723 40.1846Z" fill="#52D1BD"/>
<path d="M24.9518 27.9893L25.6853 33.8243C24.9692 33.9128 24.2455 33.735 23.6519 33.3247C23.0583 32.9144 22.6362 32.3003 22.4659 31.5991C22.2956 30.8979 22.389 30.1586 22.7282 29.5217C23.0675 28.8848 23.629 28.3949 24.3059 28.145L24.439 28.1012L24.5116 28.0815C24.6558 28.0397 24.803 28.0089 24.9518 27.9893Z" fill="#B3CEF6"/>
<path d="M23.507 31.1314C23.5674 31.6106 23.8156 32.0463 24.197 32.3426C24.5784 32.639 25.0619 32.7718 25.5412 32.7119L25.0875 29.0986C24.8499 29.1276 24.6204 29.2033 24.4122 29.3213C24.204 29.4393 24.0212 29.5973 23.8743 29.7862C23.7274 29.9751 23.6194 30.1912 23.5563 30.4221C23.4933 30.653 23.4765 30.894 23.507 31.1314Z" fill="white"/>
<path d="M41.0199 46.2939C40.4197 46.6397 39.7961 46.943 39.1535 47.2014L39.0703 46.5329L41.0199 46.2939Z" fill="#52D1BD"/>
<path d="M38.2711 40.1786L36.8675 44.3847L34.5625 43.2595L36.7299 40.3722L37.0127 39.9971L38.2711 40.1786Z" fill="#B3CEF6"/>
<path d="M34.5638 43.2548L32.6112 44.9139L30.2109 41.1872L31.3861 40.7002L31.7521 40.9936L34.5638 43.2548Z" fill="#B3CEF6"/>
<path d="M41.3862 24.4656C36.0003 25.5409 35.9005 20.5574 36.1651 18.083C38.3552 18.8256 40.6299 20.5634 41.3862 24.4656Z" fill="#52D1BD"/>
<path d="M38.0796 20.5421C37.9283 20.8658 36.4794 24.4745 33.1066 24.8965C29.7338 25.3184 24.6368 28.0167 24.8924 31.4C25.1481 34.7834 19.3826 21.6765 29.4903 19.3291C39.5981 16.9818 38.0796 20.5421 38.0796 20.5421Z" fill="#52D1BD"/>
</svg>
