<svg xmlns="http://www.w3.org/2000/svg" width="26.434" height="27.188" viewBox="0 0 26.434 27.188">
  <g id="Group_12812" data-name="Group 12812" transform="translate(0.001 0)">
    <path id="Path_101289" data-name="Path 101289" d="M499.14,194.466h-2.5a.061.061,0,0,1-.06-.062v-2.593a.06.06,0,0,1,.06-.063h2.5a.062.062,0,0,1,.061.063V194.4a.062.062,0,0,1-.061.066Z" transform="translate(-484.786 -179.514)" fill="#62edc2"/>
    <path id="Path_101290" data-name="Path 101290" d="M496.008,194.466h-2.5a.062.062,0,0,1-.06-.062v-2.593a.061.061,0,0,1,.06-.063h2.5a.061.061,0,0,1,.06.063V194.4a.062.062,0,0,1-.06.066Z" transform="translate(-485.583 -179.514)" fill="#ff0176"/>
    <path id="Path_101291" data-name="Path 101291" d="M502.449,194.466h-2.5a.062.062,0,0,1-.06-.062v-2.593a.061.061,0,0,1,.06-.063h2.5a.061.061,0,0,1,.06.063V194.4a.062.062,0,0,1-.06.066Z" transform="translate(-483.946 -179.514)" fill="#62edc2"/>
    <path id="Path_101292" data-name="Path 101292" d="M496.008,191.215h-2.5a.061.061,0,0,1-.06-.063V188.56a.061.061,0,0,1,.06-.063h2.5a.061.061,0,0,1,.06.063v2.592a.061.061,0,0,1-.06.063Z" transform="translate(-485.583 -180.35)" fill="#62edc2"/>
    <path id="Path_101293" data-name="Path 101293" d="M492.867,191.215h-2.5a.062.062,0,0,1-.062-.063V188.56a.062.062,0,0,1,.062-.063h2.5a.061.061,0,0,1,.061.063v2.592a.061.061,0,0,1-.061.063Z" transform="translate(-486.382 -180.35)" fill="#62edc2"/>
    <path id="Path_101294" data-name="Path 101294" d="M492.875,187.965h-2.5a.061.061,0,0,1-.06-.063V185.31a.061.061,0,0,1,.06-.063h2.5a.063.063,0,0,1,.062.063v2.59a.06.06,0,0,1-.062.065Z" transform="translate(-486.382 -181.174)" fill="#ff0176"/>
    <path id="Path_101295" data-name="Path 101295" d="M489.738,187.965h-2.5a.061.061,0,0,1-.06-.063V185.31a.062.062,0,0,1,.06-.063h2.5a.062.062,0,0,1,.06.063v2.59A.063.063,0,0,1,489.738,187.965Z" transform="translate(-487.179 -181.174)" fill="#62edc2"/>
    <path id="Path_101296" data-name="Path 101296" d="M492.875,184.719h-2.5a.061.061,0,0,1-.06-.063v-2.593a.061.061,0,0,1,.06-.063h2.5a.062.062,0,0,1,.062.063v2.593a.06.06,0,0,1-.062.063Z" transform="translate(-486.382 -182)" fill="#62edc2"/>
    <path id="Path_101297" data-name="Path 101297" d="M489.738,184.719h-2.5a.061.061,0,0,1-.06-.063v-2.593a.061.061,0,0,1,.06-.063h2.5a.061.061,0,0,1,.06.063v2.593A.063.063,0,0,1,489.738,184.719Z" transform="translate(-487.179 -182)" fill="#62edc2"/>
    <path id="Path_101298" data-name="Path 101298" d="M508.721,187.965h-2.5a.061.061,0,0,1-.06-.063V185.31a.062.062,0,0,1,.06-.063h2.5a.062.062,0,0,1,.06.063v2.59a.061.061,0,0,1-.06.065Z" transform="translate(-482.349 -181.174)" fill="#c769f9"/>
    <path id="Path_101299" data-name="Path 101299" d="M505.581,187.965h-2.5a.061.061,0,0,1-.06-.063V185.31a.062.062,0,0,1,.06-.063h2.5a.063.063,0,0,1,.06.063v2.59a.062.062,0,0,1-.06.065Z" transform="translate(-483.148 -181.174)" fill="#62edc2"/>
    <path id="Path_101300" data-name="Path 101300" d="M508.721,184.719h-2.5a.061.061,0,0,1-.06-.063v-2.593a.061.061,0,0,1,.06-.063h2.5a.061.061,0,0,1,.06.063v2.593a.061.061,0,0,1-.06.063Z" transform="translate(-482.349 -182)" fill="#62edc2"/>
    <path id="Path_101301" data-name="Path 101301" d="M505.581,184.719h-2.5a.061.061,0,0,1-.06-.063v-2.593a.061.061,0,0,1,.06-.063h2.5a.062.062,0,0,1,.06.063v2.593a.062.062,0,0,1-.06.063Z" transform="translate(-483.148 -182)" fill="#2390f5"/>
    <path id="Path_101302" data-name="Path 101302" d="M505.589,191.215h-2.5a.061.061,0,0,1-.06-.063V188.56a.061.061,0,0,1,.06-.063h2.5a.062.062,0,0,1,.06.063v2.592a.062.062,0,0,1-.06.063Z" transform="translate(-483.144 -180.35)" fill="#62edc2"/>
    <path id="Path_101303" data-name="Path 101303" d="M502.449,191.215h-2.5a.061.061,0,0,1-.06-.063V188.56a.061.061,0,0,1,.06-.063h2.5a.061.061,0,0,1,.06.063v2.592a.061.061,0,0,1-.06.063Z" transform="translate(-483.946 -180.35)" fill="#ff0176"/>
    <path id="Path_101304" data-name="Path 101304" d="M499.95,195h2.5a.061.061,0,0,1,.06.063v2.593a.061.061,0,0,1-.06.063h-2.5a.061.061,0,0,1-.06-.063v-2.593a.061.061,0,0,1,.06-.063Z" transform="translate(-483.946 -178.703)" fill="#62edc2"/>
    <path id="Path_101305" data-name="Path 101305" d="M503.091,195h2.5a.062.062,0,0,1,.06.063v2.593a.062.062,0,0,1-.06.063h-2.5a.061.061,0,0,1-.06-.063v-2.593a.061.061,0,0,1,.06-.063Z" transform="translate(-483.144 -178.703)" fill="#ff0176"/>
    <path id="Path_101306" data-name="Path 101306" d="M503.082,198.248h2.5a.062.062,0,0,1,.06.063V200.9a.062.062,0,0,1-.06.063h-2.5a.061.061,0,0,1-.06-.063v-2.593a.061.061,0,0,1,.06-.059Z" transform="translate(-483.148 -177.867)" fill="#62edc2"/>
    <path id="Path_101307" data-name="Path 101307" d="M506.222,198.248h2.5a.061.061,0,0,1,.06.063V200.9a.061.061,0,0,1-.06.063h-2.5a.061.061,0,0,1-.06-.063v-2.593A.061.061,0,0,1,506.222,198.248Z" transform="translate(-482.349 -177.867)" fill="#ffe164"/>
    <path id="Path_101308" data-name="Path 101308" d="M503.082,201.5h2.5a.062.062,0,0,1,.06.063v2.593a.062.062,0,0,1-.06.063h-2.5a.062.062,0,0,1-.06-.063v-2.593a.061.061,0,0,1,.06-.063Z" transform="translate(-483.148 -177.031)" fill="#62edc2"/>
    <path id="Path_101309" data-name="Path 101309" d="M506.222,201.5h2.5a.061.061,0,0,1,.06.063v2.593a.062.062,0,0,1-.06.063h-2.5a.062.062,0,0,1-.06-.063v-2.593a.061.061,0,0,1,.06-.063Z" transform="translate(-482.349 -177.031)" fill="#62edc2"/>
    <path id="Path_101310" data-name="Path 101310" d="M487.239,198.248h2.5a.061.061,0,0,1,.06.063V200.9a.061.061,0,0,1-.06.063h-2.5a.061.061,0,0,1-.06-.063v-2.593A.061.061,0,0,1,487.239,198.248Z" transform="translate(-487.179 -177.867)" fill="#2390f5"/>
    <path id="Path_101311" data-name="Path 101311" d="M490.379,198.248h2.5a.061.061,0,0,1,.06.063V200.9a.061.061,0,0,1-.06.063h-2.5a.062.062,0,0,1-.06-.063v-2.593a.062.062,0,0,1,.06-.059Z" transform="translate(-486.38 -177.867)" fill="#c769f9"/>
    <path id="Path_101312" data-name="Path 101312" d="M487.239,201.5h2.5a.061.061,0,0,1,.06.063v2.593a.062.062,0,0,1-.06.063h-2.5a.062.062,0,0,1-.06-.063v-2.593a.061.061,0,0,1,.06-.063Z" transform="translate(-487.179 -177.031)" fill="#62edc2"/>
    <path id="Path_101313" data-name="Path 101313" d="M490.379,201.5h2.5a.061.061,0,0,1,.06.063v2.593a.062.062,0,0,1-.06.063h-2.5a.062.062,0,0,1-.06-.063v-2.593A.062.062,0,0,1,490.379,201.5Z" transform="translate(-486.38 -177.031)" fill="#62edc2"/>
    <path id="Path_101314" data-name="Path 101314" d="M490.37,195h2.5a.061.061,0,0,1,.061.063v2.593a.061.061,0,0,1-.061.063h-2.5a.062.062,0,0,1-.062-.063v-2.593a.064.064,0,0,1,.062-.063Z" transform="translate(-486.382 -178.703)" fill="#ffe164"/>
    <path id="Path_101315" data-name="Path 101315" d="M493.509,195h2.5a.061.061,0,0,1,.06.063v2.593a.061.061,0,0,1-.06.063h-2.5a.061.061,0,0,1-.06-.063v-2.593A.063.063,0,0,1,493.509,195Z" transform="translate(-485.583 -178.703)" fill="#62edc2"/>
  </g>
</svg>
